<svg height='200' width='200'  fill="#51A7F9" xmlns="http://www.w3.org/2000/svg" xmlns:xlink="http://www.w3.org/1999/xlink" version="1.1" baseProfile="tiny" x="0px" y="0px" viewBox="0 0 500 500" xml:space="preserve"><g><path d="M405.919,94.081C364.272,52.433,308.899,29.497,250,29.497S135.729,52.433,94.081,94.081   C52.433,135.729,29.497,191.102,29.497,250s22.937,114.271,64.584,155.919S191.102,470.503,250,470.503   s114.271-22.937,155.919-64.584S470.503,308.899,470.503,250S447.567,135.728,405.919,94.081z M449.012,236.108l-109.423-9.317   l90.305-63.008C440.556,185.942,447.232,210.362,449.012,236.108z M428.096,160.159l-94.739,66.101l-35.598-3.031l15.437-32.961   l104.098-48.837C421.219,147.458,424.828,153.708,428.096,160.159z M286.239,238.394l-5.65-3.937l-0.75-8.739l11.864,1.01   L286.239,238.394z M287.848,244.391l9.769,6.806l-10.564,7.371l-2.925-6.234L287.848,244.391z M279.492,221.674l-1.286-14.99   l29.329-13.759l-14.024,29.943L279.492,221.674z M278.255,269.585l7.193-5.018l5.057,10.779l-12.834,1.101L278.255,269.585z    M292.316,279.205l13.759,29.328l-29.942-14.023l1.194-14.019L292.316,279.205z M288.777,262.244l12.339-8.609l26.58,18.519   l-32.943,2.827L288.777,262.244z M301.113,248.758l-11.544-8.043l6.381-13.625l32.279,2.748L301.113,248.758z M415.058,138.062   l-99.21,46.544l46.533-99.357C383.063,99.402,400.959,117.339,415.058,138.062z M359.016,83.001l-48.83,104.262l-32.345,15.174   l-3.112-36.263l65.535-94.059C346.726,75.408,352.982,79.048,359.016,83.001z M257.568,211.948l-6.235,2.925l-7.943-3.72   l6.807-9.769L257.568,211.948z M252.635,197.885l18.52-26.58l2.827,32.943l-12.737,5.976L252.635,197.885z M239.715,209.431   l-13.625-6.381l2.748-32.279l18.919,27.116L239.715,209.431z M237.394,212.762l-3.937,5.651l-8.739,0.75l1.01-11.864   L237.394,212.762z M236.757,289.776l8.609,12.339l-18.52,26.581l-2.827-32.943L236.757,289.776z M223.655,291.505l-1.101-12.834   l6.863,0.584l5.018,7.193L223.655,291.505z M240.432,288.052l6.234-2.925l7.943,3.72l-6.807,9.769L240.432,288.052z    M258.285,290.569l13.625,6.381l-2.748,32.279l-18.92-27.117L258.285,290.569z M260.606,287.238l3.937-5.65l8.74-0.75l-1.01,11.864   L260.606,287.238z M250,274c-13.255,0-24-10.745-24-24s10.745-24,24-24s24,10.745,24,24S263.255,274,250,274z M268.585,220.746   l-5.019-7.193l10.779-5.057l1.101,12.835L268.585,220.746z M336.644,70.314l-62.45,89.631L264.85,51.049   C290.41,52.939,314.646,59.663,336.644,70.314z M250,50.497c3.628,0,7.232,0.104,10.813,0.296l9.806,114.282l-20.424,29.314   l-20.826-29.849l9.684-113.739C242.678,50.604,246.327,50.497,250,50.497z M235.017,51.058l-9.226,108.355l-62.236-89.198   C185.461,59.639,209.583,52.955,235.017,51.058z M159.935,72.016l65.326,93.627l-3.031,35.599l-32.961-15.437L141.026,82.973   C147.109,78.991,153.417,75.328,159.935,72.016z M210.153,255.61l-9.77-6.807l10.564-7.371l2.925,6.235L210.153,255.61z    M217.412,265.543l0.75,8.739l-11.864-1.01l5.464-11.666L217.412,265.543z M196.886,246.366l-26.581-18.52l32.943-2.827   l5.976,12.738L196.886,246.366z M196.888,251.242l11.544,8.043l-6.381,13.625l-32.28-2.748L196.888,251.242z M204.49,277.133   l14.02,1.194l1.286,14.989l-29.329,13.76L204.49,277.133z M219.746,230.416l-7.193,5.019l-5.057-10.78l12.835-1.101   L219.746,230.416z M205.684,220.795l-13.76-29.329l29.943,14.024l-1.194,14.019L205.684,220.795z M137.661,85.22l45.945,97.933   l-98.079-45.935C99.545,116.84,117.243,99.184,137.661,85.22z M83.268,140.578l102.994,48.236l15.175,32.346l-36.263,3.112   l-92.947-64.76C75.563,152.983,79.258,146.668,83.268,140.578z M70.426,163.131l88.519,61.675l-107.81,9.251   C53.14,208.811,59.864,184.875,70.426,163.131z M50.497,250c0-3.998,0.132-7.965,0.365-11.905l113.213-9.715l29.314,20.424   l-29.849,20.826l-112.792-9.603C50.583,256.706,50.497,253.363,50.497,250z M50.999,264.064l107.413,9.145l-88.797,61.956   C59.267,313.335,52.769,289.343,50.999,264.064z M71.389,338.805l93.253-65.065l35.6,3.031l-15.436,32.959L82.234,357.852   C78.282,351.726,74.664,345.365,71.389,338.805z M84.458,361.227l97.697-45.834l-46.043,98.311   C115.832,399.553,98.287,381.743,84.458,361.227z M139.456,415.993l48.358-103.255l32.345-15.175l3.112,36.263l-65.004,93.298   C151.781,423.751,145.503,420.033,139.456,415.993z M161.871,428.948l61.935-88.892l9.33,108.728   C207.74,446.647,183.686,439.735,161.871,428.948z M250,449.503c-4.309,0-8.582-0.153-12.824-0.424l-9.795-114.155l20.424-29.314   l20.827,29.85l-9.692,113.833C255.975,449.424,252.997,449.503,250,449.503z M262.973,449.07l9.236-108.481l62.727,89.903   C312.854,440.926,288.564,447.419,262.973,449.07z M338.581,428.723l-65.84-94.365l3.031-35.599l32.96,15.436l48.715,103.838   C351.376,421.928,345.074,425.491,338.581,428.723z M360.821,415.81l-46.428-98.963l99.589,46.641   C399.694,384.07,381.642,401.848,360.821,415.81z M416.26,360.138l-104.523-48.952l-15.174-32.345l36.263-3.112l94.415,65.783   C423.912,347.932,420.242,354.147,416.26,360.138z M429.06,337.904l-90.003-62.71l109.825-9.424   C446.861,291.482,439.938,315.835,429.06,337.904z M333.925,271.62l-29.314-20.424l29.849-20.826l114.798,9.774   c0.16,3.266,0.245,6.552,0.245,9.857c0,3.939-0.128,7.849-0.354,11.732L333.925,271.62z"></path><path d="M413.698,86.302C369.973,42.577,311.837,18.497,250,18.497S130.028,42.577,86.302,86.302S18.497,188.163,18.497,250   s24.081,119.973,67.806,163.697c43.725,43.726,101.861,67.806,163.698,67.806s119.973-24.08,163.697-67.806   c43.726-43.725,67.806-101.86,67.806-163.697S457.423,130.028,413.698,86.302z M250,474.503   C126.209,474.503,25.497,373.791,25.497,250C25.497,126.209,126.209,25.497,250,25.497c123.791,0,224.503,100.712,224.503,224.503   C474.503,373.791,373.791,474.503,250,474.503z"></path><circle cx="250" cy="250" r="6"></circle></g></svg>